<svg xmlns="http://www.w3.org/2000/svg" aria-hidden="true" overflow="hidden" style="position:absolute;width:0;height:0">
  <defs>
    <symbol id="antenna" viewBox="0 0 32 32">
      <path fill="var(--color1, #212121)" d="m30.63 21.94-8.23-8.23.91-4.57a2.25 2.25 0 0 0 .93 0h-.01a2.29 2.29 0 1 0-2.28-1.35v-.02l-5.04.46L9.14 0a.46.46 0 0 0-.46 0 .46.46 0 0 0-.46 0L6.86 1.83a.46.46 0 0 0 0 .46l.46.91a15.04 15.04 0 0 0 2.74 17.83 3.2 3.2 0 0 0 0 .47v-.01 6.4h-6.4a2.74 2.74 0 0 0-2.74 2.74v.91l.92.46h24.22l.46-.46V30.6c0-1.35-.98-2.48-2.27-2.7h-6.41v-2.75h2.97c2.6 0 5.04-.67 7.16-1.86l-.08.04.46.9.46.47 1.83-1.83a.46.46 0 0 0 0-.92zM23.3 6.4c.14-.07.3-.1.46-.1a1.02 1.02 0 0 1 .46 1.93c-.14.07-.3.1-.46.1a1.02 1.02 0 0 1-.46-1.93zm-1.37 3.2-.45 3.2-1.37-1.37 1.82-1.83zm-.45-.91-1.83 2.28-1.83-1.83 3.66-.45zm2.74 20.11c.8.21 1.37.92 1.37 1.77v.52H2.29v-.52c0-.85.57-1.56 1.35-1.77h20.59zm-7.77-2.29v1.37h-5.03v-1.37h5.03zm-5.03-.91v-4.11c0-1.37.91-2.29 2.29-2.29 1.82 0 2.74.91 2.74 2.29v4.11h-5.03zm6.4-1.83V21.5c0-1.83-1.83-3.2-4.11-3.2h-.04c-1.34 0-2.52.72-3.16 1.8v.02A13.67 13.67 0 0 1 8.27 4.04l-.04.07 18.74 18.75a13.51 13.51 0 0 1-9.23.89l.09.02zm10.97-.46-.46-.91L7.77 1.83l.92-.46L29.7 22.4l-.9.91z"/>
      <path fill="var(--color2, #2196f3)" d="M13.71 20.11a1.83 1.83 0 0 0 0 3.2 1.83 1.83 0 1 0 0-3.2zm.46 2.29a.51.51 0 0 1-.46-.91.51.51 0 0 1 .46.91z"/>
    </symbol>
    <symbol id="astronaut" viewBox="0 0 32 32">
      <path fill="var(--color2, #2196f3)" d="M32 4.57c0-.25-.2-.46-.46-.46l-1.83-.45-.91-1.37h-.91l-.92 1.37-1.83.45a.51.51 0 0 0-.46.91l1.38 1.38-.46 1.83a.51.51 0 0 0 .91.46l1.83-.92 1.83.92c.25 0 .46-.21.46-.46V6.4L32 5.03a.46.46 0 0 0 0-.46zm-2.29 1.37-.45.46.45.91-1.37-.45a.46.46 0 0 0-.46 0l-.9.45.45-.91c0-.25-.2-.46-.46-.46l-.91-.91h1.37l.45-.46.46-.91.46.91.46.46h.91l-.46.91zm-3.65 14.63h-.92v.92h.92v-.92zm0 2.29h-.92v.91h.92v-.91zm1.37-1.37h-1.37v1.37h1.37v-1.37zm-2.29 0h-.91v1.37h.91v-1.37zM22.4 26.5h-.91v.92h.91v-.92zm0 1.83h-.91v1.37h.91v-1.37zm.91-.91h-.91v.91h.91v-.91zm-1.82 0h-1.37v.91h1.37v-.91zM16 24.23h-.91v.91H16v-.91zm0 2.28h-.91v.92H16v-.92zm.91-1.37H16v1.37h.91v-1.37zm-1.82 0h-1.37v1.37h1.37v-1.37zM5.94 5.94h-.91v1.37h.91V5.94zm0 2.29h-.91v.91h.91v-.91zm.92-.92h-.92v.92h.92V7.3zm-1.83 0H3.66v.92h1.37V7.3z"/>
      <path fill="var(--color1, #212121)" d="M24.69 14.17c-.29-.5-.79-.84-1.37-.91-.36.06-.67.23-.92.45l-1.37.92L19.2 16l-1.37-.46A6.86 6.86 0 0 0 14.6 2.3h.03a6.86 6.86 0 0 0-5.47 10.98l-.01-.01H6.4c-.06-.04-.14-.06-.23-.06s-.16.02-.23.06l-3.2 1.37-1.82.91a1.83 1.83 0 0 0-.91 2.3v-.01c.28.5.77.84 1.35.91h.01a1.8 1.8 0 0 0 1.39 0h-.01l1.37-.91 2.28-.92h1.37L.92 23.77c-.23.24-.4.56-.46.9V24.74c0 .85.57 1.56 1.36 1.77h.01l1.37-.46 1.37-1.37 1.83-1.37.92.92-3.2 3.2c-.23.24-.4.55-.46.9v.01l.46 1.37c.24.23.55.4.9.46h.01l1.37-.46 4.57-4.57L16 19.65l3.66.46h.45l3.2-2.28 1.38-1.38a1.82 1.82 0 0 0 0-2.28zm-22.4 3.66a.9.9 0 0 1-.92 0 .91.91 0 0 1 0-1.37L2.74 16l.46.91v.46l-.91.46zM5.49 16l-1.38.91-.45-.91v-.46l1.83-.91V16zm15.08-6.86-.46 2.75L16 10.06a1.83 1.83 0 0 0-.9-1.37h-.01l1.37-5.03a5.74 5.74 0 0 1 4.11 5.48zm-11.43 0a5.95 5.95 0 0 1 6.42-5.48h-.02l-1.37 4.57a1.83 1.83 0 1 0 0 3.66l1.37-.92 4.12 1.83A5.94 5.94 0 0 1 9.14 9.15zm5.95.92-.92.91c-.5 0-.91-.4-.91-.91l.91-.92.92.92zM2.29 25.14a.46.46 0 0 1-.46 0 .46.46 0 0 1 0-.91l.91-.92.46.92-.92.91zm3.2 3.66a.46.46 0 0 1-.46 0 .46.46 0 0 1 0-.91l.91-.92.92.92-1.38.91zm3.65-3.2-1.83 1.37h-.45l-.46-.46 1.83-1.83v-.9L6.86 22.4c0-.25-.2-.46-.46-.46h-.46l-1.82 1.37-.92-.91 2.74-2.29 4.12 4.57-.92.92zM16 18.29a.46.46 0 0 0-.46 0v.45l-4.57 5.03-4.57-4.11 2.74-3.2a.46.46 0 0 0 0-.92H6.86v-1.37h3.2a6.84 6.84 0 0 0 4.54 2.29h.03L16 16h.46l2.28 1.37v.46l.46.91-3.2-.45zm4.11.45-.45-1.83 1.37-.91.45.46.46.91-1.83 1.37zm3.66-3.2-.91.92-.92-1.37.92-.46h.91a.9.9 0 0 1 0 .92z"/>
      <path fill="var(--color1, #212121)" d="m13.71 18.74-2.28-2.28a.46.46 0 0 0-.92 0l-1.83 2.28c-.03.07-.06.15-.06.23s.03.16.07.23l1.82 2.29a.46.46 0 0 0 .92 0l2.28-2.29c.04-.06.06-.14.06-.23s-.02-.16-.06-.23zm-2.74 1.37L9.6 18.74l1.37-1.37 1.37 1.37-1.37 1.37zm6.4-15.08-.46.91s1.83.46 1.83 2.29h.92c0-1.83-1.83-2.74-2.29-3.2zm2.29 4.11h-.92v1.37h.92V9.14z"/>
    </symbol>
    <symbol id="client1-logo" viewBox="0 0 57 32">
      <path d="M20.27 3.73 24 7.27h-6.93v17.16H35.2v-6.56l3.73 3.53V3.73H20.27zm14.77 13.73L24.44 7.42h10.6v10.03zm-3.3 4.46h-11.8V10.39h.83v10.76h10.97v.78zm-9.02 4.8h.37l-.64 1.2v.7h-.32v-.7l-.64-1.2h.36l.44.9.44-.9zm.55 1.9.15-.44h.74l.16.43h.34l-.72-1.89h-.3l-.71 1.9h.35zm.52-1.5.28.79h-.55l.27-.79zm1.74.75a.43.43 0 0 0-.07.23c0 .16.05.3.17.4.1.1.26.14.45.14s.35-.05.48-.15l.1.12h.38l-.28-.32c.1-.15.16-.34.16-.58h-.27c0 .13-.03.25-.09.35l-.36-.43.13-.1c.1-.06.16-.13.2-.2a.42.42 0 0 0-.07-.52.48.48 0 0 0-.33-.11h-.04a.5.5 0 0 0-.34.12.46.46 0 0 0-.14.36c0 .06.02.12.05.19s.08.14.15.23c-.1.08-.2.16-.28.27zm.85.41a.48.48 0 0 1-.3.11h-.01a.3.3 0 0 1-.2-.08.28.28 0 0 1-.1-.2v-.01c0-.11.06-.2.17-.28l.03-.03.41.5zm-.33-.84c-.1-.1-.14-.2-.14-.27s.02-.12.06-.16a.19.19 0 0 1 .13-.06h.01c.06 0 .1.02.15.05.03.03.05.08.05.13 0 .07-.03.13-.08.18l-.04.03-.14.1zm3.08 1.04a.76.76 0 0 1-.52.16.72.72 0 0 1-.4-.1c-.11-.08-.2-.18-.26-.31s-.1-.29-.1-.46v-.18c0-.18.03-.34.1-.47a.73.73 0 0 1 .27-.32c.12-.07.25-.1.41-.1h.04c.18 0 .34.06.47.16.12.13.2.3.21.48h-.32c-.02-.13-.06-.23-.12-.29s-.16-.09-.28-.09a.38.38 0 0 0-.33.16c-.08.1-.12.26-.12.46v.16c0 .2.04.37.11.47.07.1.18.16.3.16h.02c.14 0 .23-.02.3-.08.06-.06.1-.16.12-.3h.32c-.01.21-.09.37-.22.49zm1.94-.27c.06-.15.1-.3.1-.5v-.1c0-.19-.04-.35-.1-.48a.73.73 0 0 0-.67-.44h-.03c-.15 0-.28.04-.4.12s-.21.18-.28.32c-.06.14-.1.3-.1.5v.1c0 .18.04.34.1.48s.16.24.28.32a.81.81 0 0 0 .83 0 .75.75 0 0 0 .27-.32zm-.36-1.07c.08.1.13.27.13.48v.1c0 .21-.04.37-.12.48a.38.38 0 0 1-.32.17h-.04a.4.4 0 0 1-.32-.17.82.82 0 0 1-.12-.49v-.1c0-.2.04-.36.12-.48a.39.39 0 0 1 .34-.16.4.4 0 0 1 .33.16z"/>
    </symbol>
    <symbol id="client2-logo" viewBox="0 0 57 32">
      <path d="m26.73 3.16.38.03h.08c.66.05 1.3.15 1.85.29V1.95l.08.01a11.3 11.3 0 0 0-2.82-.36h-.23c-1.39 0-2.73.19-3.9.5l-.12.02a15.5 15.5 0 0 0-4.04 1.67v15.15l-.09.04c1.23-.67 2.54-1.2 4.05-1.58l-.12.03c1.09-.3 2.23-.47 3.44-.54h.04c.19-.02.38-.02.57-.02v-1.55h-.01a17.82 17.82 0 0 0-5.8 1.02l-.55.18V4.7l.23-.11-.09.04a15.04 15.04 0 0 1 5.7-1.47h.05l.64-.02h.25l.33.01h.07zm2.68 1.56a16.82 16.82 0 0 0 5.27-.52l-.11.03c1.5-.38 2.82-.9 4.04-1.58l-.08.04v14.88c-1.2.7-2.58 1.29-4.05 1.66l-.1.03c-1.18.31-2.52.5-3.91.5h-.1c-1.02 0-2.01-.13-2.96-.37l.08.02V4.44c.56.13 1.22.24 1.89.28h.03zm7.58.12-.55.18a17.83 17.83 0 0 1-5.98 1.02c-.35 0-.67 0-.99-.02l-.42-.03v12.14l.36.04a13.33 13.33 0 0 0 4.68-.44l-.1.02c1.06-.27 1.98-.6 2.85-1.03l-.09.04.24-.1V4.83zM19.06 24.11a.8.8 0 0 0-.57-.24h-.05a.9.9 0 0 0-.33.07.78.78 0 0 0-.44.44.9.9 0 0 0-.07.34v2.03c0 .14.03.28.08.4.1.21.27.37.48.42.1.03.2.05.3.05a.85.85 0 0 0 .84-.85v-.23h-.53V26.74c0 .06 0 .11-.03.16a.31.31 0 0 1-.07.11.37.37 0 0 1-.22.08h-.03a.26.26 0 0 1-.22-.1.48.48 0 0 1-.07-.26v-1.91c0-.1.02-.2.07-.3a.27.27 0 0 1 .22-.12h.04c.1 0 .17.05.23.11.05.08.09.17.09.27v.18h.52V24.75a.94.94 0 0 0-.06-.35.84.84 0 0 0-.18-.29zm3.14-.02a.93.93 0 0 0-.6-.22c-.1 0-.21.02-.32.05a.84.84 0 0 0-.48.45.9.9 0 0 0-.07.4v1.93c0 .14.02.28.07.4.05.11.12.2.2.27.09.08.18.14.29.18a.91.91 0 0 0 .92-.17.83.83 0 0 0 .27-.63v-1.99a.94.94 0 0 0-.08-.4v.01a.88.88 0 0 0-.2-.28zm-.24 2.61v.03c0 .1-.04.2-.11.26a.39.39 0 0 1-.5 0 .34.34 0 0 1-.1-.26v-2c0-.1.03-.18.1-.25a.39.39 0 0 1 .5 0c.07.07.1.16.1.26v1.96zm4.37.87V23.9h-.51l-.67 1.95-.68-1.95h-.5v3.67h.52v-2.24h.01l.51 1.59h.27l.51-1.58h.01v2.23h.53zm2.98-3.41a.72.72 0 0 0-.3-.2c-.1-.04-.23-.06-.36-.06h-.79v3.67h.52v-1.44h.27c.16.01.32-.02.47-.1a.82.82 0 0 0 .4-.6c.03-.12.04-.26.04-.4v-.01c0-.18-.02-.36-.06-.53a.79.79 0 0 0-.19-.34zm-.26 1.12c-.01.07-.03.13-.06.19a.3.3 0 0 1-.13.12.52.52 0 0 1-.24.06h-.25V24.4H28.66a.5.5 0 0 1 .22.05c.05.02.1.07.12.13.03.06.04.13.05.2v.5zm2.74-1.38h-.42l-.82 3.67h.53l.15-.78h.71l.16.78h.52l-.83-3.67zm-.48 2.38.25-1.33h.01l.26 1.33h-.52zm3.86-.17-.8-2.21h-.5v3.67h.53v-2.2l.8 2.2h.5V23.9h-.53v2.22zm3.2-2.21-.42 1.46-.44-1.46h-.55l.72 2.12v1.55h.53v-1.55l.72-2.12h-.56zM17.6 28.6h.25v.7h.17v-.7h.25v-.15h-.67v.15zm2.12-.15-.33.86h.18l.07-.2h.34l.07.2h.19l-.34-.86h-.18zm-.02.52.1-.32.12.32h-.22zm2.12.02h.2v.11a.33.33 0 0 1-.2.07h-.02a.21.21 0 0 1-.17-.08.36.36 0 0 1-.06-.2v-.02c0-.19.08-.28.24-.28h.02c.08 0 .15.05.18.13l.17-.03c-.04-.17-.16-.25-.37-.25h-.01c-.11 0-.21.04-.29.1a.41.41 0 0 0-.12.34v.02c0 .11.04.22.11.3.07.07.18.12.3.12h.03c.14 0 .27-.05.36-.14v-.33h-.38V29zm2.14-.53h-.17v.85h.6v-.15h-.43v-.7zm1.81 0h-.17v.85h.17v-.85zm1.77.57-.35-.58h-.17v.86h.16v-.56l.35.56h.17v-.86h-.16v.57zm1.6-.1h.43v-.15h-.43v-.18h.45v-.15h-.63v.86h.66v-.15h-.48v-.23zm3.87-.14h-.33v-.34h-.17v.86h.17v-.38H33v.38h.17v-.86h-.17v.34zm1.61.14h.43v-.15h-.43v-.18h.46v-.15h-.63v.86h.65v-.15h-.48v-.23zm2.2 0c.13-.02.21-.1.21-.24v-.02a.2.2 0 0 0-.08-.16.48.48 0 0 0-.22-.06h-.4v.86h.18v-.36h.04c.04 0 .07 0 .1.02l.05.07.2.26h.2l-.1-.16a.58.58 0 0 0-.2-.2v-.01zm-.19-.11h-.12v-.22h.14a.46.46 0 0 1 .17.02c.02.02.04.05.04.09 0 .03-.02.06-.05.09a.47.47 0 0 1-.14.02h-.04zm1.82.11h.43v-.15h-.43v-.18h.46v-.15h-.63v.86h.65v-.15h-.47v-.23z"/>
    </symbol>
    <symbol id="client3-logo" viewBox="0 0 57 32">
      <path d="M19.41 26.19h.03l.02.01.12.12c-.1.09-.2.15-.33.2-.12.06-.27.08-.43.08h-.06c-.15 0-.29-.02-.42-.07h.01a.97.97 0 0 1-.33-.2.9.9 0 0 1-.21-.3 1.02 1.02 0 0 1-.08-.39v-.03c0-.27.12-.52.31-.69.1-.08.22-.15.34-.2.15-.05.3-.07.46-.07h.03c.14 0 .27.03.4.07h-.01c.11.04.22.1.3.18l-.09.11-.02.03a.06.06 0 0 1-.04 0 .1.1 0 0 1-.04-.01L19.3 25l-.07-.04a.97.97 0 0 0-.4-.09h-.01a.96.96 0 0 0-.32.06.65.65 0 0 0-.42.39c-.03.09-.05.2-.05.3v.02c0 .11.02.22.06.31.07.18.22.32.4.38.1.03.2.05.3.05l.18-.01a.7.7 0 0 0 .38-.16.09.09 0 0 1 .05-.02zm3.36-.56v.02a.86.86 0 0 1-.3.68c-.09.08-.2.15-.33.2a1.39 1.39 0 0 1-.9 0 1.02 1.02 0 0 1-.34-.2.9.9 0 0 1-.21-.3v-.01a1.02 1.02 0 0 1 0-.8v.01c.1-.24.3-.42.55-.5a1.36 1.36 0 0 1 .9 0 .9.9 0 0 1 .64.87v.03zm-.3 0v-.02c0-.1-.02-.21-.06-.3a.66.66 0 0 0-.39-.38 1.02 1.02 0 0 0-.65 0 .68.68 0 0 0-.24.15.63.63 0 0 0-.16.23.92.92 0 0 0 0 .64c.07.18.21.32.4.38.2.07.44.07.64 0 .1-.03.18-.08.25-.15a.66.66 0 0 0 .16-.23c.03-.1.05-.21.05-.32zm2.6.33.03.07.03-.07a.69.69 0 0 1 .04-.08l.75-1.16.03-.04a.17.17 0 0 1 .07 0h.22v1.9h-.27v-1.52l-.74 1.19a.1.1 0 0 1-.04.04.13.13 0 0 1-.07.01h-.04L25 26.3a.1.1 0 0 1-.04-.04l-.77-1.2v1.53h-.25v-1.9h.22a.2.2 0 0 1 .06 0c.02 0 .03.02.04.04l.76 1.17.04.07zm2.8-.1v.72h-.3v-1.9h.65c.13 0 .24 0 .37.04.09.02.18.06.25.11s.11.12.15.19c.03.08.05.16.05.25 0 .18-.09.33-.22.43a.69.69 0 0 1-.25.13c-.1.03-.22.04-.34.04h-.36zm0-.2h.34c.08 0 .16 0 .23-.03a.5.5 0 0 0 .16-.08.37.37 0 0 0 .13-.29v-.03c0-.04 0-.09-.02-.13a.36.36 0 0 0-.1-.12.62.62 0 0 0-.35-.1H27.86v.78zm3.9.92h-.23a.1.1 0 0 1-.06-.02.12.12 0 0 1-.04-.04l-.2-.46h-.99l-.2.46a.1.1 0 0 1-.1.06h-.24l.88-1.9h.3l.88 1.9zm-1.44-.7h.82l-.34-.78a1.27 1.27 0 0 1-.07-.17v-.01l-.03.1-.03.08-.35.77zm2.7-1.2.04.04 1.28 1.44v-1.49h.25v1.91h-.14l-.06-.01a.16.16 0 0 1-.05-.03l-1.27-1.44v1.48h-.26v-1.9H33.03zm3.72 1.14v.76h-.3v-.76l-.8-1.15h.27a.1.1 0 0 1 .06.02l.04.05.5.74.08.16.05-.08.05-.08.49-.75a.21.21 0 0 1 .04-.04.1.1 0 0 1 .05-.02h.28l-.81 1.16zm-11.83-4.35.39.03a10.71 10.71 0 0 0 4.75-3.56l.02-.03a8.54 8.54 0 0 0 1.7-5.12v-.16l-2.17-1.87a9.56 9.56 0 0 1-.59 5.93c-.9 1.99-2.31 3.6-4.05 4.76l-.05.02z"/>
      <path d="M24.15 21.39h.06a10.82 10.82 0 0 0 4.32-4.92 9.09 9.09 0 0 0 .39-6.25l.01.07-3.08-2.67a11.35 11.35 0 0 1 1.44 7.15v-.06c-.35 2.6-1.48 4.9-3.15 6.68zm10.45-6.55c-.6 2.18-1.89 4-3.6 5.26l-.03.02c-.5.38-1.06.73-1.66 1.04l-.06.03c1.49-.38 2.86-1.05 4-1.96s2.03-2.05 2.6-3.31l-1.25-1.08z"/>
      <path d="m34.1 14.54-1.77-1.55a8.9 8.9 0 0 1-1.7 5.01l.03-.02a10.93 10.93 0 0 1-4.29 3.53l-.06.03h.03c.41 0 .82-.03 1.22-.07h-.05c1.7-.59 3.13-1.53 4.3-2.74a9.02 9.02 0 0 0 2.29-4.13v-.06zm-9.69-8.05L22.3 4.64c-1.9.62-3.49 1.74-4.68 3.2l-.01.01a7.95 7.95 0 0 0-1.77 4.95 8.04 8.04 0 0 0 2.15 5.39 10.34 10.34 0 0 0 5.43 3.08l.07.01a11.6 11.6 0 0 0 3.25-7.22v-.04l.02-.64c0-2.6-.88-5-2.36-6.92l.02.03zm14.6 7.77a8.23 8.23 0 0 0-2.96-6.18 10.85 10.85 0 0 0-7.03-2.57h-.08c-1.29 0-2.52.22-3.67.61l.07-.02 13 11.28c.42-.92.67-2 .67-3.13z"/>
    </symbol>
    <symbol id="client4-logo" viewBox="0 0 57 32">
      <path d="M12.88 11.25c-1.28 0-2.32.93-2.32 2.06 0 1.14 1.04 2.06 2.31 2.06 1.29 0 2.33-.92 2.33-2.06 0-1.13-1.04-2.06-2.32-2.06zm17.1-.65c-.01-1.58-.72-3.1-1.98-4.22a7.12 7.12 0 0 0-4.68-1.74h-.05c-1.78 0-3.48.63-4.74 1.75a5.64 5.64 0 0 0-1.97 4.2v8.71s13.41-1.33 13.41-8.7zM5.86 22.16c0 1.1.5 2.15 1.37 2.93a4.96 4.96 0 0 0 3.26 1.21h.03c1.24 0 2.42-.43 3.3-1.21a3.93 3.93 0 0 0 1.37-2.93v-6.05s-9.33.92-9.33 6.05zm4.66 1.08c-.24 0-.48-.06-.68-.18-.2-.11-.35-.28-.44-.48a.95.95 0 0 1-.07-.64c.04-.2.15-.4.33-.55a1.3 1.3 0 0 1 .86-.32c.17 0 .33.03.48.09H11c.22.08.42.22.55.4s.2.39.2.6c0 .14-.03.28-.09.42a1.1 1.1 0 0 1-.26.35 1.32 1.32 0 0 1-.85.32h-.02zm9.43-.6h-.9v.94h-.47V21.3h1.48v.38h-1.01v.59h.9v.38zm2.25-.15c0 .23-.04.42-.12.59-.08.17-.2.3-.34.4a.92.92 0 0 1-.49.13h-.02a.91.91 0 0 1-.85-.52 1.31 1.31 0 0 1-.12-.57V22.4c0-.23.04-.43.12-.6a.9.9 0 0 1 .85-.52c.19 0 .36.04.5.14.15.09.27.22.34.39.09.17.13.36.13.59v.1zm-.48-.1a.95.95 0 0 0-.12-.55.42.42 0 0 0-.35-.18h-.04a.42.42 0 0 0-.34.18.95.95 0 0 0-.13.54v.11c0 .23.04.41.12.54s.21.2.38.2h.01c.14 0 .27-.08.34-.19.1-.12.13-.3.13-.54v-.11zm2 .6v-.02a.24.24 0 0 0-.1-.2c-.1-.05-.2-.1-.33-.14-.15-.05-.28-.1-.4-.17l.01.01c-.25-.14-.39-.32-.39-.56 0-.13.04-.23.11-.33s.17-.17.3-.23a1.12 1.12 0 0 1 .88.02h-.01a.67.67 0 0 1 .4.6h-.47c0-.1-.03-.18-.1-.23a.4.4 0 0 0-.25-.1h-.05c-.09 0-.17.03-.24.08a.23.23 0 0 0-.1.19c0 .08.04.14.12.19.07.05.18.1.33.14.26.08.45.18.58.3a.6.6 0 0 1 .18.44c0 .2-.07.35-.22.47s-.35.17-.6.17c-.18 0-.34-.04-.48-.1a.77.77 0 0 1-.33-.26.67.67 0 0 1-.11-.37v-.03h.46c0 .26.15.38.46.38.1 0 .2-.02.26-.07.05-.04.09-.1.09-.18zm2.5-1.31h-.7v1.9h-.46v-1.9h-.7v-.37h1.85v.37zm1.64.9h-.9v.62h1.06v.37H26.5V21.3h1.52v.38h-1.05v.54h.9v.37zm1.28.17h-.38v.83h-.47V21.3h.85c.26 0 .47.06.62.18.14.12.21.3.21.51a.7.7 0 0 1-.1.39c-.07.1-.18.2-.3.24l.5.93v.03h-.51l-.43-.84zm-.38-.39h.38c.11 0 .2-.02.27-.08.06-.06.1-.14.1-.23v-.02c0-.1-.03-.2-.1-.25-.06-.07-.15-.1-.27-.1h-.38v.68zm2.84.41v.8h-.47V21.3h.89c.17 0 .32.03.45.1.13.06.23.15.3.26.07.12.1.25.1.4 0 .22-.07.4-.22.53a.96.96 0 0 1-.65.18h-.4zm0-.37h.42a.4.4 0 0 0 .28-.1c.07-.05.1-.14.1-.24v-.01c0-.1-.04-.2-.1-.26a.37.37 0 0 0-.26-.1h-.44v.7zm2.97.2h-.9v.6h1.05v.37h-1.52V21.3h1.52v.38h-1.06v.54h.9v.37zm2.17-.92h-.7v1.9h-.47v-1.9h-.68v-.37h1.85v.37zm1.64.91h-.9v.61h1.05v.37h-1.52V21.3h1.52v.38h-1.05v.54h.9v.37zm1.27.15h-.37v.84h-.47V21.3h.84c.27 0 .49.06.63.18s.21.29.21.5c0 .16-.03.3-.1.4a.7.7 0 0 1-.3.24l.5.93v.03h-.51l-.43-.84zm-.38-.37h.38c.12 0 .22-.03.28-.1.06-.05.1-.14.1-.23v-.01c0-.11-.03-.2-.1-.25-.05-.07-.15-.1-.28-.1h-.37v.68zm2.76.61v-.01a.24.24 0 0 0-.1-.2c-.1-.05-.2-.1-.32-.14h-.01c-.15-.05-.28-.1-.4-.17h.02c-.26-.13-.4-.32-.4-.56 0-.12.04-.22.11-.32s.17-.17.3-.23a1.12 1.12 0 0 1 .88.01c.12.06.22.14.28.25.07.1.11.23.11.37h-.47c0-.11-.03-.2-.1-.24a.4.4 0 0 0-.25-.1h-.05c-.09 0-.17.03-.24.08a.23.23 0 0 0-.1.19c0 .08.04.14.11.19.08.05.19.1.33.14.27.08.47.18.6.3s.17.26.17.44c0 .2-.07.35-.22.46s-.35.18-.6.18a1.2 1.2 0 0 1-.48-.1.77.77 0 0 1-.33-.26.67.67 0 0 1-.11-.38v-.02h.47c0 .26.15.38.44.38.12 0 .2-.02.27-.07.06-.04.1-.1.1-.18z"/>
    </symbol>
    <symbol id="client5-logo" viewBox="0 0 57 32">
      <path d="M14.27 23.86a.78.78 0 0 1 .2.56c0 .12-.03.23-.08.33a.84.84 0 0 1-.22.29 1.4 1.4 0 0 1-.9.24h.01-1.55v-3.3h1.52l.08-.01c.28 0 .55.08.77.23a.76.76 0 0 1 .28.61.7.7 0 0 1-.17.5.83.83 0 0 1-.46.27c.2.03.39.13.52.28zm-1.81-.5h.64c.15.01.3-.03.42-.1a.4.4 0 0 0 .1-.15c.02-.05.04-.1.04-.16v-.02a.35.35 0 0 0-.03-.18.42.42 0 0 0-.1-.14.66.66 0 0 0-.44-.12h-.64v.87zm1.12 1.27c.05-.04.09-.1.12-.15.02-.05.03-.11.03-.17v-.04a.42.42 0 0 0-.16-.32.71.71 0 0 0-.39-.12h-.73v.91h.7a.7.7 0 0 0 .42-.11zm3.8.65-.85-1.3h-.32v1.3h-.73v-3.3h1.38l.1-.01c.32 0 .62.1.86.29a1.02 1.02 0 0 1 .32.74 1 1 0 0 1-.22.62c-.17.18-.4.3-.65.34l.89 1.32h-.79zm-1.17-1.74h.6c.4 0 .61-.16.61-.5v-.02a.5.5 0 0 0-.16-.35.67.67 0 0 0-.4-.14H16.2v1zm5.13 1.07h-1.45l-.25.67h-.77l1.34-3.27h.82l1.32 3.27h-.76l-.25-.67zm-.2-.5-.53-1.39-.52 1.4h1.06zm5.16 1.17h-.72l-1.61-2.25v2.24h-.72v-3.3h.72l1.62 2.26v-2.26h.72v3.31zm4.12-.79c-.15.25-.38.45-.66.58-.28.13-.6.21-.95.21h-1.34v-3.3h1.33c.35 0 .68.07.98.2h-.02c.28.13.5.33.66.58a1.77 1.77 0 0 1 0 1.73zm-.83-.08c.2-.2.32-.48.32-.79 0-.29-.11-.57-.32-.79a1.32 1.32 0 0 0-.9-.28h-.5v2.14h.59c.3 0 .6-.1.82-.28zm-7.8-20.8s9.3 3.22 9.1 7.87v7.87s-9.29-3.22-9.1-7.87V3.6zm17.39 13.9a13.31 13.31 0 0 1 5.85-2h.06v-2.46a12.02 12.02 0 0 0-5.89 4.42l-.02.04z"/>
      <path d="M38.12 18.25a12.38 12.38 0 0 1 6.88-5.7l.09-.02V5.44s-13.25 4.58-12.97 11.2v11.2s.59-.2 1.52-.59c0-.35 0-.72.05-1.08a11.35 11.35 0 0 1 4.4-7.9l.03-.02z"/>
      <path d="M36.86 22.4c.07-.77.23-1.54.47-2.29a10.32 10.32 0 0 0-2.8 6.76v.01c1.1-.48 1.93-.9 2.75-1.33l-.2.1a10.7 10.7 0 0 1-.22-3.25zm.53.05a9.66 9.66 0 0 0 .17 3v-.07c3.61-1.98 7.68-5.04 7.52-8.75v-.32a12.36 12.36 0 0 0-6.9 2.96l.02-.01c-.42.93-.7 2.01-.8 3.15v.04z"/>
    </symbol>
    <symbol id="client6-logo" viewBox="0 0 57 32">
      <path d="M28.5 14.61a1.56 1.56 0 0 1-.33-1.06v-1.53c0-.47.1-.83.32-1.07s.59-.37 1.1-.37c.49 0 .84.1 1.04.31.23.27.34.6.31.92v.36h-.87v-.36c0-.13 0-.24-.03-.36a.35.35 0 0 0-.12-.21.5.5 0 0 0-.28-.09h-.07a.53.53 0 0 0-.3.1.42.42 0 0 0-.15.23c-.02.1-.03.22-.03.34V13.72a1 1 0 0 0 .1.53.47.47 0 0 0 .4.15h.05c.1 0 .2-.03.27-.08a.37.37 0 0 0 .13-.23c.02-.12.03-.25.03-.37v-.38h.87V13.77c0 .33-.11.64-.3.88-.2.23-.55.34-1.05.34s-.88-.13-1.1-.38zm3.64.03c-.22-.25-.34-.6-.34-1.06v-1.61c0-.46.12-.8.34-1.04.22-.24.59-.35 1.1-.35.52 0 .89.11 1.1.35.23.23.34.58.34 1.04v1.61c0 .46-.1.8-.33 1.05-.23.24-.59.36-1.1.36s-.9-.12-1.11-.36zm1.51-.4a.9.9 0 0 0 .11-.48v-2.02c0-.16-.04-.3-.1-.43a.41.41 0 0 0-.18-.12.48.48 0 0 0-.23-.03h-.07a.48.48 0 0 0-.17.03.43.43 0 0 0-.17.13.82.82 0 0 0-.11.47v1.98c-.01.16.02.34.1.48.06.06.11.1.19.12.06.03.14.04.22.04s.16-.01.23-.04a.57.57 0 0 0 .18-.11v-.02zm2.08-3.62h.95l.7 3 .73-3h.92l.09 4.31h-.68l-.07-2.99-.7 3h-.55l-.73-3.01-.06 3h-.69l.09-4.3zm4.45 0h1.46c.85 0 1.27.42 1.27 1.23 0 .78-.44 1.17-1.33 1.17h-.5v1.91h-.9v-4.3zm1.25 1.84h.08a.7.7 0 0 0 .42-.13c.1-.14.15-.32.13-.48v-.06c0-.12-.02-.24-.05-.35v.01a.36.36 0 0 0-.18-.2.92.92 0 0 0-.35-.07H41.08v1.28h.35zm2.79-1.84h.97l1 4.31h-.84l-.2-.99h-.87l-.2 1h-.86l1-4.32zm.83 2.82-.34-1.8-.34 1.8h.68zM47 10.62h.63l1.21 2.46v-2.45h.76v4.3H49l-1.22-2.56v2.56H47v-4.3zm4.35 2.67-1-2.66h.85l.61 1.7.58-1.7h.83l-1 2.67v1.63h-.86V13.3zM29.9 16.82v.22h-.74v1.75h-.3v-1.75h-.75v-.22h1.8zm2.32 1.97h-.24a.1.1 0 0 1-.07-.02.1.1 0 0 1-.04-.04l-.21-.47h-1.03l-.2.47-.04.05a.1.1 0 0 1-.06.02h-.25l.9-1.98h.33l.9 1.97zm-1.5-.73h.85l-.36-.8a1.33 1.33 0 0 1-.06-.18v-.01l-.04.1-.03.09-.36.8zm3.06.54h.17a1 1 0 0 0 .29-.06h-.01l.12-.05v-.44h-.36c-.03 0-.04 0-.05-.02l-.02-.01V17.85h.7v.75c-.1.07-.23.13-.37.16h-.01a1.58 1.58 0 0 1-.5.06c-.16 0-.32-.03-.46-.08h.01a1.13 1.13 0 0 1-.36-.2.96.96 0 0 1-.23-.31.97.97 0 0 1-.09-.4v-.04c0-.14.03-.28.09-.4a.87.87 0 0 1 .23-.3c.1-.1.23-.16.36-.21a1.48 1.48 0 0 1 .75-.05h-.01c.15.02.28.06.4.13l.16.1-.1.12-.02.02a.09.09 0 0 1-.04.02l-.06-.02a.97.97 0 0 1-.1-.05.77.77 0 0 0-.1-.05h-.01l-.16-.04h-.01a1.38 1.38 0 0 0-.21-.02h-.03c-.12 0-.24.02-.34.05a.74.74 0 0 0-.43.4.9.9 0 0 0 0 .67.78.78 0 0 0 .8.44zm2.9-.04h.98v.23h-1.3v-1.97h.32v1.75zm2 .24h-.3v-1.98h.3v1.98zm1.16-1.97c.02 0 .03.02.05.03l1.32 1.5V16.8h.27v1.98h-.22a.18.18 0 0 1-.05-.04l-1.32-1.5v1.54h-.26v-1.97h.2zm3.93-.01v.2h-1.1v.67h.89v.2h-.9v.68h1.1v.21h-1.41v-1.96h1.42zM11.29 4.62l13.76 3.37v11.82l-13.76-3.37V4.62zM10.4 3.6v13.41l15.51 3.81V7.42L10.4 3.61z"/>
      <path d="M18.72 27.04 3.2 23.22V9.82l15.52 3.82v13.4z"/>
      <path d="M10.66 4.46 24.24 7.8l-5.78 4.98L4.9 9.45l5.77-4.99zm-.26-.85L3.2 9.83l15.52 3.8 7.2-6.22-15.52-3.8zm9.2 22.67 6.33-5.46-6.34-1.56v7.02z"/>
    </symbol>
    <symbol id="clock" viewBox="0 0 32 32">
      <path fill="var(--color1, #212121)" d="M31.3 15.3a15.3 15.3 0 1 0-20.07 14.55l.1.03a.68.68 0 0 0 .54-.06c.14-.08.23-.2.28-.36l3.86-12.25a1.91 1.91 0 1 0-.85-3.63h.01l-5.1-5.1a.64.64 0 0 0-.9.9l5.1 5.1a1.87 1.87 0 0 0 .53 2.3v.01l-3.68 11.67a14.04 14.04 0 1 1 10.66-.38l-.09.03-.4-1.87a.64.64 0 0 0-1.05-.34l-3.83 3.42a.64.64 0 0 0 .22 1.08l4.9 1.57a.64.64 0 0 0 .82-.75l-.39-1.83a15.28 15.28 0 0 0 9.33-14.06v-.03zM16 14.66a.64.64 0 0 1 0 1.28.64.64 0 0 1 0-1.28zm2.1 14.87 2.18-1.95.6 2.84-2.8-.9z"/>
      <path fill="var(--color2, #2196f3)" d="M15.36 3.19v1.33a.64.64 0 1 0 1.27-.06V3.18a.64.64 0 0 0-1.28 0zM3.88 14.66a.64.64 0 0 0 0 1.28h1.27a.64.64 0 0 0 0-1.28H3.87zm24.23 1.28a.64.64 0 0 0 0-1.28h-1.28a.64.64 0 0 0 0 1.28h1.28z"/>
    </symbol>
    <symbol id="diagram" viewBox="0 0 32 32">
      <path fill="var(--color2, #2196f3)" d="M14.93 14.96h1.06v4.8h-1.06v-4.8zm4.26 2.14h1.07v2.66h-1.07V17.1zm-8.53 1.6h1.07v1.06h-1.07V18.7zm-3.2-.54h1.07v1.6H7.47v-1.6z"/>
      <path fill="var(--color1, #212121)" d="M1.6 28.3h25.59c.88 0 1.6-.72 1.6-1.6v-2.14c0-.89-.72-1.6-1.6-1.6h-.54V9.67l3.03-2.87a1.6 1.6 0 1 0-.75-.75v-.01L26.65 8.2V6.97c0-.88-.71-1.6-1.6-1.6H3.73c-.88 0-1.6.72-1.6 1.6v16H1.6c-.88 0-1.6.71-1.6 1.6v2.12c0 .89.72 1.6 1.6 1.6zM30.39 4.83h.04a.53.53 0 1 1-.05 1.06.54.54 0 0 1 0-1.06zM3.2 6.97c0-.3.24-.53.53-.53h21.33c.29 0 .53.23.53.53V9.2l-1.07 1.01V8.04c0-.3-.24-.54-.53-.54H4.8c-.3 0-.53.24-.53.54v13.32c0 .3.24.53.53.53H24c.29 0 .53-.23.53-.53V11.7l1.06-1.01v12.28H3.2V6.97zM8 13.9h-.01a1.6 1.6 0 1 0 1.11 2.74l1.86.94c.21.1.47.05.63-.13l3.94-4.43 3.87 2.9c.21.16.5.14.69-.03l3.37-3.2v8.14H5.33V8.56h18.13v2.66l-3.78 3.57-3.9-2.92a.54.54 0 0 0-.72.07l-4 4.5-1.49-.75.03-.2c0-.88-.72-1.6-1.6-1.6zm.53 1.6v.05a.53.53 0 1 1-1.07-.06.54.54 0 0 1 1.07 0zm3.2 8.53h5.32v.53c0 .3-.24.53-.53.53h-4.26a.53.53 0 0 1-.54-.53v-.53zm-10.67.53c0-.3.24-.53.54-.53h9.06v.53c0 .88.71 1.6 1.6 1.6h4.26c.89 0 1.6-.72 1.6-1.6v-.53h9.06c.3 0 .53.24.53.53v2.13c0 .3-.23.53-.53.53H1.6a.54.54 0 0 1-.53-.53v-2.13z"/>
    </symbol>
    <symbol id="envelope" viewBox="0 0 43 32">
      <path d="M38.67 0H4a4 4 0 0 0-4 4v24a4 4 0 0 0 4 4h34.67a4 4 0 0 0 4-4V4a4 4 0 0 0-4-4zm0 2.67c.2 0 .38.04.54.1h-.01L21.33 18.24 3.47 2.77c.15-.06.33-.1.52-.1h34.68zm0 26.66H4c-.74 0-1.33-.6-1.33-1.33V5.6l17.78 15.41a1.33 1.33 0 0 0 1.77 0L40 5.57V28c0 .74-.6 1.33-1.33 1.33z"/>
    </symbol>
    <symbol id="facebook" viewBox="0 0 32 32">
      <path d="M21.33 5.31h2.93V.22A36.5 36.5 0 0 0 20.15 0h-.16.01c-4.22 0-7.1 2.66-7.1 7.52V12H8.26v5.7h4.64V32h5.7V17.7h4.46l.7-5.7h-5.17V8.08c0-1.65.45-2.77 2.74-2.77z"/>
    </symbol>
    <symbol id="instagram" viewBox="0 0 32 32">
      <path  d="M31.97 9.4c-.03-1.4-.3-2.73-.76-3.96l.02.08a7.86 7.86 0 0 0-1.85-2.83A7.95 7.95 0 0 0 26.54.85 11.48 11.48 0 0 0 22.67.1h-.01a104.86 104.86 0 0 0-6.69-.1h.1c-4.36 0-4.9.02-6.6.1C7.76.16 6.6.45 5.58.83A8 8 0 0 0 2.75 2.7 8 8 0 0 0 .9 5.52 11.47 11.47 0 0 0 .16 9.4a104.86 104.86 0 0 0-.1 6.69V16c0 4.35 0 4.9.08 6.6.03 1.4.3 2.73.78 3.96l-.02-.08a7.78 7.78 0 0 0 1.85 2.83 8 8 0 0 0 2.83 1.86c1.01.38 2.18.65 3.88.73 1.7.08 2.24.1 6.59.1s4.9-.02 6.6-.1c1.4-.02 2.73-.29 3.96-.76l-.08.03a8.24 8.24 0 0 0 4.67-4.64l.02-.05c.38-1.02.67-2.18.73-3.89.08-1.7.1-2.24.1-6.59 0-4.34 0-4.88-.08-6.6zm-2.88 13.08a8.54 8.54 0 0 1-.55 2.96 5.34 5.34 0 0 1-3 3.03l-.04.01c-.56.22-1.42.48-2.97.54-1.68.08-2.2.1-6.47.1a106.97 106.97 0 0 1-6.7-.1h.24a8.45 8.45 0 0 1-2.96-.54 4.96 4.96 0 0 1-1.84-1.2c-.52-.5-.93-1.1-1.19-1.79l-.01-.03a8.64 8.64 0 0 1-.54-2.98 108.65 108.65 0 0 1-.1-6.55v.09c0-4.28.02-4.79.1-6.47.06-1.57.32-2.4.54-2.97.26-.7.66-1.32 1.2-1.83.5-.52 1.12-.93 1.8-1.19h.04c.56-.23 1.4-.49 2.98-.55 1.68-.08 2.19-.1 6.44-.1 4.3 0 4.8 0 6.47.1 1.57.06 2.4.32 2.97.54.7.26 1.33.66 1.84 1.2.53.51.95 1.14 1.2 1.83.21.57.48 1.42.55 2.97.08 1.68.1 2.2.1 6.47s-.02 4.76-.1 6.46z"/>
      <path  d="M16.06 7.78a8.22 8.22 0 1 0 0 16.44 8.22 8.22 0 1 0 0-16.44zm0 13.55a5.33 5.33 0 1 1 0-10.66 5.33 5.33 0 1 1 0 10.66zM26.53 7.46a1.92 1.92 0 0 1-3.84 0 1.92 1.92 0 0 1 3.84 0z"/>
    </symbol>
    <symbol id="linkedin" viewBox="0 0 32 32">
      <path d="M32 32V20.26c0-5.73-1.23-10.16-7.95-10.16h-.26a6.96 6.96 0 0 0-6 3.42l-.01.03h-.1v-2.91H11.3V32h6.64V21.42c0-2.78.53-5.49 3.97-5.49 3.4 0 3.45 3.19 3.45 5.67V32H32zM.51 10.64h6.64V32H.53V10.64zM3.84 0A3.84 3.84 0 0 0 0 3.84v.02a3.87 3.87 0 0 0 3.84 3.87 3.87 3.87 0 0 0 0-7.73z"/>
    </symbol>
    <symbol id="smartphone" viewBox="0 0 20 32">
      <path  d="M17 0H3a3 3 0 0 0-3 3v26a3 3 0 0 0 3 3h14a3 3 0 0 0 3-3V3a3 3 0 0 0-3-3zM3 2h14a1 1 0 0 1 1 1v21H2V3a1 1 0 0 1 1-1zm14 28H3a1 1 0 0 1-1-1v-3h16v3a1 1 0 0 1-1 1z"/>
      <path  d="M4.7 27.48a.9.9 0 0 1 0 1.32 1.05 1.05 0 0 1-1.4 0 .9.9 0 0 1 0-1.32 1.05 1.05 0 0 1 1.4 0z"/>
    </symbol>
    <symbol id="twitter" viewBox="0 0 32 32">
      <path d="M32 6.08c-1.1.5-2.37.86-3.7 1.03l-.08.01a6.56 6.56 0 0 0 2.87-3.59l.01-.04a12.9 12.9 0 0 1-4.07 1.58l-.09.02A6.55 6.55 0 0 0 15.6 9.57c0 .51.05 1 .16 1.49a18.54 18.54 0 0 1-13.5-6.83l-.04-.04c-.56.95-.9 2.1-.9 3.32v.01a6.55 6.55 0 0 0 2.9 5.42l.02.02a6.45 6.45 0 0 1-3-.82l.04.02v.06a6.6 6.6 0 0 0 5.22 6.44l.04.01c-.5.14-1.09.23-1.7.23h-.03c-.41 0-.84-.04-1.24-.12a6.64 6.64 0 0 0 6.12 4.56 13.1 13.1 0 0 1-8.12 2.8h-.04c-.54 0-1.07-.03-1.6-.1H0A18.29 18.29 0 0 0 10 29h.07c12.06 0 18.67-10 18.67-18.65l-.02-.85a13.2 13.2 0 0 0 3.25-3.36l.03-.05z"/>
    </symbol>
    <symbol id="mail" viewBox="0 0 43 32">
      <path d="M37.333 0h-32c-2.2 0-3.98 1.8-3.98 4l-.02 24c0 2.2 1.8 4 4 4h32c2.2 0 4-1.8 4-4V4c0-2.2-1.8-4-4-4zm-.8 8.5-14.14 8.84c-.64.4-1.48.4-2.12 0L6.133 8.5c-.5-.32-.8-.86-.8-1.44 0-1.34 1.46-2.14 2.6-1.44l13.4 8.38 13.4-8.38c1.14-.7 2.6.1 2.6 1.44 0 .58-.3 1.12-.8 1.44z"/>
    </symbol>
    <symbol id="person" viewBox="0 0 32 32">
      <path d="M16 16c4.42 0 8-3.58 8-8s-3.58-8-8-8-8 3.58-8 8 3.58 8 8 8zm0 4c-5.34 0-16 2.68-16 8v2c0 1.1.9 2 2 2h28c1.1 0 2-.9 2-2v-2c0-5.32-10.66-8-16-8z"/>
    </symbol>
    <symbol id="phone" viewBox="0 0 32 32">
      <path d="m27.419 20.852-4.201-.48a3.293 3.293 0 0 0-2.713.943l-3.044 3.044A24.888 24.888 0 0 1 6.56 13.458l3.06-3.06a3.293 3.293 0 0 0 .943-2.713l-.48-4.168A3.31 3.31 0 0 0 6.791.589H3.929C2.06.589.505 2.144.621 4.013c.877 14.126 12.174 25.407 26.284 26.284 1.869.116 3.424-1.439 3.424-3.308v-2.861c.016-1.671-1.241-3.077-2.911-3.275z"/>
    </symbol>
    <symbol id="send" viewBox="0 0 32 32">
      <path d="M32 0 0 18l10.227 3.788L26 7 14.002 23.186l.01.004-.012-.004V32l5.735-6.691L27 28l5-28z"/>
    </symbol>
    <symbol id="cross" viewBox="0 0 32 32">
      <path d="M32 3.223 28.777 0 16 12.777 3.223 0 0 3.223 12.777 16 0 28.777 3.223 32 16 19.223 28.777 32 32 28.777 19.223 16 32 3.223z"/>
    </symbol>
   <symbol id="menu" viewBox="0 0 32 32">
      <path d="M6.4 11.733v-2.133h19.2v2.133h-19.2zM6.4 17.067h19.2v-2.133h-19.2v2.133zM6.4 22.4h19.2v-2.133h-19.2v2.133z"></path>
   </symbol>
   <symbol id="close" viewBox="0 0 32 32">
    <path d="M23.733 10.304l-1.504-1.504-5.963 5.963-5.963-5.963-1.504 1.504 5.963 5.963-5.963 5.963 1.504 1.504 5.963-5.963 5.963 5.963 1.504-1.504-5.963-5.963 5.963-5.963z"></path>
  </symbol>
  </defs>
</svg>
